<?xml version="1.0" encoding="UTF-8"?><svg id="Layer_2" xmlns="http://www.w3.org/2000/svg" xmlns:xlink="http://www.w3.org/1999/xlink" viewBox="0 0 109.56 119.04"><defs><style>.cls-1{fill:url(#linear-gradient);}.cls-1,.cls-2,.cls-3{stroke-width:0px;}.cls-2{fill:url(#linear-gradient-2);}.cls-3{fill:url(#linear-gradient-3);}</style><linearGradient id="linear-gradient" x1="21.39" y1="77.59" x2="78.67" y2="29.52" gradientUnits="userSpaceOnUse"><stop offset="0" stop-color="#00dbff"/><stop offset="1" stop-color="#00ff75"/></linearGradient><linearGradient id="linear-gradient-2" x1="1.45" y1="99.56" x2="10.97" y2="91.58" xlink:href="#linear-gradient"/><linearGradient id="linear-gradient-3" x1="10.92" y1="105.24" x2="102.26" y2="28.6" xlink:href="#linear-gradient"/></defs><g id="Layer_1-2"><path class="cls-1" d="M37.96,18.29l10.66-8.95h.01s.02,0,.02,0c.38.06.75.12,1.13.19,22.89,4.56,37.72,26.84,33.15,49.7-4.52,22.67-26.4,37.42-49.02,33.27,4.88-1.11,9.57-3.35,13.67-6.78,13.73-11.52,15.53-32,4-45.74-6.61-7.87-16.15-11.81-25.68-11.58l12.06-10.12Z"/><path class="cls-2" d="M1.45,99.56c-2.21-2.63-1.86-6.55.77-8.75,2.63-2.21,6.55-1.86,8.75.77,2.21,2.63,1.86,6.55-.77,8.75-2.63,2.21-6.55,1.86-8.75-.77Z"/><path class="cls-3" d="M61.42,117.85c-19.21,3.86-38.12-1.94-51.7-14.04.79-.34,1.55-.79,2.25-1.38,1.42-1.19,2.38-2.74,2.85-4.4,2.97,1.71,6.12,3.16,9.43,4.3,28.27,9.72,59.04-5.34,68.73-33.6C102.7,40.46,87.64,9.69,59.38,0c24.61,4.05,44.13,22.9,48.99,47.31,6.52,32.45-14.5,64.02-46.95,70.54Z"/></g></svg>